# xmcd CD database file
#
# Track frame offsets:
#	150
#	14224
#	29820
#	42932
#	61418
#	77418
#	95965
#	112872
#	134881
#	153159
#	170575
#	186714
#	205751
#	219725
#	232322
#	247957
#	260432
#	275276
#	290008
#
# Disc length: 4057 seconds
#
# Revision: 0
# Processed by: cddbd v1.5.1PL2 Copyright (c) Steve Scherf et al.
# Submitted via: CDex 1.50beta10
#
DISCID=2d0fd713
DTITLE=Various Artist - Franky Country Gold #32
DYEAR=1900
DGENRE=Country
TTITLE0=Alan Jackson - Pop A Top
TTITLE1=Trace Adkins - It Was You
TTITLE2=Kentucky Headhunters - Dumas Walker
TTITLE3=Tucker Tanya - Little Things
TTITLE4=Clay Walker - Dreaming With My Eyes Open
TTITLE5=Judds - Grandpa Tell Me About The Good Old Days
TTITLE6=Leann Rimes - One Way Ticket
TTITLE7=Dixie Chicks - Cowboy Take Me Away
TTITLE8=Wade Hayes - Old Enough To Know Better
TTITLE9=Neal Mccoy - No Doubt About It
TTITLE10=Mary Chapin Carpenter - I Feel Lucky
TTITLE11=Keith Urban - Your Everything
TTITLE12=Jeff Foxworthy and Little Texas - Party All Night
TTITLE13=LeeAnn Rimes - Blue
TTITLE14=Wade Hayes - How Do You Sleep At Night
TTITLE15=Gary Allen - Her Man
TTITLE16=Alan Jackson - I Don't Need The Booze (To Get A Buzz On)
TTITLE17=Judds - Mama He's Crazy1
TTITLE18=Doug Stone - Why Didn't I Think Of That
EXTD=
EXTT0=
EXTT1=
EXTT2=
EXTT3=
EXTT4=
EXTT5=
EXTT6=
EXTT7=
EXTT8=
EXTT9=
EXTT10=
EXTT11=
EXTT12=
EXTT13=
EXTT14=
EXTT15=
EXTT16=
EXTT17=
EXTT18=
PLAYORDER=
